<svg width="24" height="24" viewBox="0 0 24 24" fill="none" xmlns="http://www.w3.org/2000/svg">
<g clip-path="url(#clip0_4831_15392)">
<path d="M12 0.297137C5.37075 0.297137 0 5.67239 0 12.2971C0 17.6019 3.438 22.0981 8.20275 23.6844C8.805 23.7976 9.0225 23.4264 9.0225 23.1054C9.0225 22.8204 9.01575 22.0666 9.01125 21.0661C5.6715 21.7891 4.968 19.4529 4.968 19.4529C4.42125 18.0699 3.63225 17.6986 3.63225 17.6986C2.54625 16.9569 3.7185 16.9726 3.7185 16.9726C4.9215 17.0544 5.5545 18.2064 5.5545 18.2064C6.62475 20.0424 8.3625 19.5114 9.05025 19.2024C9.15525 18.4291 9.468 17.8974 9.8085 17.6011C7.1445 17.3004 4.34325 16.2691 4.34325 11.6709C4.34325 10.3576 4.80825 9.28814 5.577 8.44814C5.44425 8.14739 5.03775 6.92489 5.68275 5.27189C5.68275 5.27189 6.687 4.95164 8.98275 6.50264C9.9435 6.23639 10.9635 6.10364 11.9828 6.09689C13.0028 6.10364 14.022 6.23714 14.9827 6.50264C17.265 4.95164 18.2685 5.27189 18.2685 5.27189C18.9127 6.92489 18.5062 8.14664 18.3892 8.44814C19.1505 9.28814 19.6155 10.3584 19.6155 11.6709C19.6155 16.2796 16.8105 17.2959 14.1435 17.5891C14.5605 17.9484 14.9512 18.6871 14.9512 19.8084C14.9512 21.4134 14.9363 22.7064 14.9363 23.0971C14.9363 23.4091 15.1462 23.7841 15.7642 23.6634C20.5642 22.0936 23.9985 17.5936 23.9985 12.2964C23.9985 5.67164 18.6277 0.296387 11.9985 0.296387L12 0.297137Z" fill="white"/>
</g>
<defs>
<clipPath id="clip0_4831_15392">
<rect width="24" height="24" fill="white"/>
</clipPath>
</defs>
</svg>
